<svg xmlns="http://www.w3.org/2000/svg" viewBox="0 0 32 32" width="16" height="16" style="fill: rgba(191, 191, 191, 1);"><path d="M9.333 8v-4c0-0.736 0.597-1.333 1.333-1.333v0h16c0.736 0 1.333 0.597 1.333 1.333v0 18.667c0 0.736-0.597 1.333-1.333 1.333v0h-4v4c0 0.736-0.6 1.333-1.343 1.333h-15.981c-0.002 0-0.005 0-0.008 0-0.737 0-1.334-0.597-1.335-1.333v-0l0.004-18.667c0-0.736 0.6-1.333 1.341-1.333h3.988zM6.669 10.667l-0.003 16h13.333v-16h-13.331zM12 8h10.667v13.333h2.667v-16h-13.333v2.667zM9.333 14.667h8v2.667h-8v-2.667zM9.333 20h8v2.667h-8v-2.667z"></path></svg>