<svg t="1608025097038" class="icon" viewBox="0 0 1024 1024" version="1.1" xmlns="http://www.w3.org/2000/svg" p-id="4050" width="16" height="16"><path d="M414.340741 810.666667c-14.506667 0-28.254815-6.352593-37.736297-17.351111L133.783704 510.672593c-7.68-8.912593-6.637037-22.376296 2.275555-30.056297 8.912593-7.68 22.376296-6.637037 30.056297 2.275556l242.915555 282.642963c1.896296 2.180741 4.171852 2.465185 5.404445 2.465185 1.232593 0 3.034074-0.379259 4.361481-1.896296L859.022222 249.268148c7.68-9.007407 21.143704-10.05037 30.056297-2.37037 9.007407 7.68 10.05037 21.143704 2.37037 30.056296L451.318519 793.78963c-9.102222 10.714074-22.565926 16.877037-36.788149 16.877037h-0.189629z" p-id="4051" fill="#1890FF"></path></svg>